<?xml version="1.0" standalone="no"?>
<!DOCTYPE svg PUBLIC "-//W3C//DTD SVG 20010904//EN"
 "http://www.w3.org/TR/2001/REC-SVG-20010904/DTD/svg10.dtd">
<svg version="1.0" xmlns="http://www.w3.org/2000/svg"
 width="260.000000pt" height="260.000000pt" viewBox="0 0 260.000000 260.000000"
 preserveAspectRatio="xMidYMid meet">
<metadata>
Created by potrace 1.11, written by Peter Selinger 2001-2013
</metadata>
<g transform="translate(0.000000,260.000000) scale(0.100000,-0.100000)"
fill="#000000" stroke="none">
<path d="M780 1685 c-18 -22 -21 -44 -10 -66 26 -47 98 -14 85 39 -8 32 -5 29
-36 37 -18 4 -30 1 -39 -10z"/>
<path d="M1145 1673 c0 -27 2 -28 55 -31 30 -2 57 -6 59 -8 9 -9 5 -557 -4
-560 -5 -2 -39 -5 -75 -7 -64 -4 -65 -4 -65 -32 l0 -29 189 0 190 0 7 27 c5
18 3 27 -4 28 -64 3 -143 12 -147 16 -3 2 -5 143 -5 311 l0 307 -100 3 -101 3
1 -28z"/>
<path d="M1920 1594 c-17 -36 -30 -68 -30 -70 0 -2 -11 -27 -24 -56 -98 -215
-194 -453 -185 -459 13 -8 59 -3 69 8 8 9 261 599 268 626 3 14 -2 17 -32 17
-36 0 -38 -2 -66 -66z"/>
<path d="M250 1475 c-80 -40 -169 -83 -197 -96 -43 -20 -53 -29 -53 -49 0 -23
18 -34 196 -120 108 -52 200 -97 206 -99 5 -2 8 12 6 33 -3 35 -5 37 -128 96
-69 33 -138 67 -153 76 l-28 16 73 35 c40 19 110 53 156 74 80 38 82 40 82 74
0 19 -3 35 -7 34 -5 0 -73 -33 -153 -74z"/>
<path d="M2190 1515 l0 -35 158 -76 157 -76 -125 -59 c-69 -33 -140 -67 -157
-76 -28 -13 -33 -21 -33 -50 0 -19 4 -33 9 -31 5 2 97 46 205 98 183 88 197
97 194 120 -2 14 -13 30 -28 37 -67 34 -372 183 -376 183 -2 0 -4 -16 -4 -35z"/>
<path d="M590 1468 c0 -22 5 -28 23 -29 19 0 94 -5 149 -8 16 -1 18 -21 18
-246 0 -134 -5 -256 -10 -269 -19 -51 -84 -69 -188 -51 l-42 7 0 -36 c0 -34 1
-35 46 -42 25 -3 75 -4 111 -1 69 5 100 21 137 71 20 26 21 40 21 329 l0 302
-132 1 -133 0 0 -28z"/>
</g>
</svg>
